<?xml version="1.0" standalone="no"?><!DOCTYPE svg PUBLIC "-//W3C//DTD SVG 1.1//EN" "http://www.w3.org/Graphics/SVG/1.1/DTD/svg11.dtd"><svg class="icon" width="200px" height="106.17px" viewBox="0 0 1929 1024" version="1.1" xmlns="http://www.w3.org/2000/svg"><path d="M1911.574117 539.146952c-128.262101 274.057073-478.74108 462.323531-884.316996 480.704048-20.343485 2.45371-40.865421 4.149-61.878098 4.149a508.587113 508.587113 0 0 1-60.36126-3.925936c-408.921884-16.239097-763.237572-205.085523-892.302706-480.927112l-12.714678-27.213871 12.759291-27.213872C142.092481 208.386878 497.211201 19.362001 906.891505 3.569032c19.228162-2.230645 38.724001-3.613645 58.487518-3.613645 21.81571 0 43.185292 1.829129 64.287195 4.505903 470.933821 24.626323 749.006056 300.869429 875.126737 468.926241l23.109485 30.827517-16.328323 34.931904z m-1768.678604-27.213871c76.288067 137.943101 229.578007 249.43075 420.030497 315.502461a509.122468 509.122468 0 0 1 0.133839-631.183375c-190.497103 66.116325-343.831656 177.603973-420.164336 315.680914z m822.48351-333.704527c-184.028232 0-333.74914 149.720908-333.74914 333.704527 0 184.072845 149.720908 333.793752 333.74914 333.793752 184.072845 0 333.793752-149.720908 333.793752-333.793752 0-183.983619-149.720908-333.704527-333.793752-333.704527z m668.390537 194.467651a1020.609419 1020.609419 0 0 0-251.839847-157.43894 508.676339 508.676339 0 0 1 95.516229 296.675816c0 117.555004-40.24084 225.652072-107.115584 312.201106 101.940487-36.359517 192.326232-86.147519 266.115976-145.705746 40.463905-43.140679 61.833486-89.5381 63.12726-138.612295 1.784516-67.767002-34.262711-127.548294-65.804034-167.119941z m70.131486 64.51026c13.562323 31.095195 23.109485 65.759421 22.128001 103.323488-0.624581 23.555614-6.558097 46.263582-14.989936 68.480808a524.067791 524.067791 0 0 0 66.428615-90.118067 1097.432841 1097.432841 0 0 0-73.56668-81.686229z m-738.522023 334.81985a260.18246 260.18246 0 0 1 0-520.320307 260.271686 260.271686 0 0 1 260.316298 260.227073 260.093234 260.093234 0 0 1-260.316298 260.093234z m178.897747-380.458851a67.365486 67.365486 0 1 0-134.864811 0 67.410099 67.410099 0 1 0 134.864811 0z" /></svg>